<?xml version="1.0" encoding="UTF-8"?>
<svg version="1.1" xmlns="http://www.w3.org/2000/svg" width="774" height="726">
<path d="M0 0 C255.42 0 510.84 0 774 0 C774 239.58 774 479.16 774 726 C518.58 726 263.16 726 0 726 C0 486.42 0 246.84 0 0 Z " fill="#C8DAE6" transform="translate(0,0)"/>
<path d="M0 0 C255.42 0 510.84 0 774 0 C774 239.58 774 479.16 774 726 C518.58 726 263.16 726 0 726 C0 486.42 0 246.84 0 0 Z M338 25 C336.58823486 25.1853833 336.58823486 25.1853833 335.14794922 25.37451172 C271.91946076 34.0582978 210.63924503 61.38436128 163 104 C162.12085938 104.77988281 161.24171875 105.55976562 160.3359375 106.36328125 C157.87689161 108.56080956 155.43815327 110.77933458 153 113 C152.02160156 113.87398438 151.04320312 114.74796875 150.03515625 115.6484375 C144.4187989 120.68814307 139.10262465 125.86735725 134.1328125 131.55859375 C132.73656118 133.15686678 131.31524534 134.73366571 129.8671875 136.28515625 C102.59989226 165.55596243 79.95020697 203.98064278 67.68579102 242.03100586 C66.89553532 244.29993152 65.98115689 246.50039998 65.05859375 248.71875 C62.76598583 254.38470529 61.1269581 260.15951168 59.5625 266.0625 C59.2631958 267.18575684 58.9638916 268.30901367 58.65551758 269.46630859 C54.24567689 286.35832062 50.51615402 303.58094386 49 321 C48.87298706 322.36632568 48.87298706 322.36632568 48.7434082 323.76025391 C46.28717425 353.32808373 46.53550664 383.80997799 52 413 C52.18723633 414.04365723 52.37447266 415.08731445 52.56738281 416.16259766 C63.4507638 475.96480254 90.26285076 532.7229082 131 578 C131.48678223 578.54317871 131.97356445 579.08635742 132.47509766 579.64599609 C142.47918005 590.76420694 152.71741932 601.66441457 164.46484375 610.9609375 C166.84047547 612.87169214 169.07469528 614.86866396 171.3125 616.9375 C177.14433951 622.16854609 183.56206897 626.56169069 190 631 C190.86987549 631.60714844 190.86987549 631.60714844 191.75732422 632.2265625 C262.96730244 681.81958299 354.07272147 701.5836107 439.45898438 686.38427734 C446.02450691 685.12433736 452.51929985 683.63768316 459 682 C459.71091797 681.8246875 460.42183594 681.649375 461.15429688 681.46875 C465.46325764 680.40089525 469.73447075 679.22896975 474 678 C475.14984375 677.67902344 476.2996875 677.35804688 477.484375 677.02734375 C496.25434629 671.50326992 514.9179583 664.2550614 532.15917969 654.98144531 C534.11682208 653.93771555 536.09110567 652.93187655 538.0703125 651.9296875 C562.43520503 639.48774018 584.48198924 623.52398234 604.67578125 605.10546875 C606.71273925 603.26022445 608.78270847 601.4691833 610.875 599.6875 C619.15464656 592.44490008 626.79050907 584.62119822 633.6171875 575.99609375 C635.34208273 573.82725008 637.08699759 571.7057101 638.8828125 569.59765625 C659.48270957 547.09103012 659.48270957 547.09103012 671 521 C671.66 521 672.32 521 673 521 C673.38285156 520.05769531 673.76570312 519.11539062 674.16015625 518.14453125 C676.68882448 512.24331666 679.8415195 506.64900229 682.88476562 501.00195312 C685.61979793 495.85829154 688.03848858 490.71632637 690.12524414 485.27563477 C691.03418248 482.91107594 692.0100805 480.58165796 693 478.25 C695.0440438 473.17182869 696.47809589 467.97577983 697.875 462.6875 C698.75971885 459.78758821 699.7453341 457.12470802 700.90625 454.3359375 C703.2606092 448.55249773 704.93084676 442.6633506 706.5 436.625 C706.95173584 434.88669922 706.95173584 434.88669922 707.41259766 433.11328125 C712.45610352 412.90670155 715.17336324 391.8393944 715.1328125 371.0078125 C715.13376923 369.90001434 715.13472595 368.79221619 715.13571167 367.65084839 C715.13638779 365.3230585 715.13457346 362.99526666 715.13037109 360.66748047 C715.1250251 357.14155759 715.13033033 353.61576268 715.13671875 350.08984375 C715.13605767 347.81249972 715.13477589 345.53515578 715.1328125 343.2578125 C715.13483673 342.22198029 715.13686096 341.18614807 715.13894653 340.118927 C715.09950621 327.54930948 713.76498288 315.37649375 711.6875 303 C711.48705078 301.73671875 711.28660156 300.4734375 711.08007812 299.171875 C709.69701455 290.84780195 707.6115227 283.01436429 705 275 C704.27100212 272.48775267 703.60252007 269.96803092 702.9375 267.4375 C702.44056641 265.55998047 702.44056641 265.55998047 701.93359375 263.64453125 C701.08020587 260.31310492 700.28691287 256.97256988 699.5 253.625 C698.41112366 249.2224081 696.96088906 245.2731002 695.0234375 241.1796875 C693.99046437 238.9796913 693.07823234 236.76108979 692.1875 234.5 C691.85105469 233.65824219 691.51460937 232.81648437 691.16796875 231.94921875 C690.30453864 229.76898552 689.4550798 227.58320749 688.61328125 225.39453125 C672.40158252 183.97592792 645.58340948 148.66415306 614.5 117.3125 C613.63407227 116.43352051 612.76814453 115.55454102 611.87597656 114.64892578 C605.89903574 108.66411168 599.61770008 103.26092225 593 98 C591.45723148 96.73050452 589.91539678 95.45987229 588.375 94.1875 C569.53485901 79.25646783 548.81164952 66.05229026 526.99169922 55.92578125 C525.60389568 55.28070267 524.220393 54.62632448 522.84033203 53.96484375 C491.55231151 38.96916804 459.43148736 30.5386031 425.3125 25.3125 C424.53592041 25.19310059 423.75934082 25.07370117 422.95922852 24.95068359 C420.6420892 24.60830291 418.32356684 24.29555093 416 24 C414.86220093 23.85316772 414.86220093 23.85316772 413.70141602 23.70336914 C403.94460911 22.63118205 394.11480846 22.80117185 384.3125 22.8125 C383.35258148 22.81310425 382.39266296 22.8137085 381.40365601 22.81433105 C366.85823053 22.83920774 352.43990705 23.08469031 338 25 Z " fill="#F3F2EF" transform="translate(0,0)"/>
<path d="M0 0 C0.66 0.66 1.32 1.32 2 2 C3.155 2.350625 4.31 2.70125 5.5 3.0625 C12.88459183 5.75760651 19.30468424 11.55235337 22.625 18.6875 C25.48498003 27.44448646 25.30975705 37.30713899 21.390625 45.68359375 C16.66790125 53.55037798 10.92207619 58.83867663 2.1484375 61.578125 C-6.86428834 63.34789662 -16.95067149 62.60751031 -24.92578125 57.8515625 C-30.84439744 53.31089464 -36.80085155 45.47704329 -38 38 C-39.020678 27.97409962 -37.86319708 20.32429215 -32 12 C-23.08683942 1.81829971 -13.43227886 -1.53409825 0 0 Z " fill="#3386FE" transform="translate(197,301)"/>
<path d="M0 0 C2.2272724 0.8094818 4.11929972 1.81079376 6.15283203 3.02783203 C7.28398437 3.69975586 7.28398437 3.69975586 8.43798828 4.38525391 C9.21529297 4.85382813 9.99259766 5.32240234 10.79345703 5.80517578 C11.58623047 6.27761719 12.37900391 6.75005859 13.19580078 7.23681641 C15.14776813 8.40094151 17.09681508 9.5696748 19.04345703 10.74267578 C17.24225858 17.30418442 17.24225858 17.30418442 15.94189453 20.17236328 C14.70200128 23.71953616 14.66185357 27.15281889 14.66845703 30.86767578 C14.66716797 31.61670166 14.66587891 32.36572754 14.66455078 33.13745117 C14.77189491 38.81632178 15.86860887 43.50821207 18.16845703 48.73876953 C19.04345703 50.74267578 19.04345703 50.74267578 19.04345703 52.74267578 C17.72345703 53.07267578 16.40345703 53.40267578 15.04345703 53.74267578 C15.04345703 54.40267578 15.04345703 55.06267578 15.04345703 55.74267578 C7.6148856 59.02839007 7.6148856 59.02839007 4.04345703 59.74267578 C4.04345703 60.40267578 4.04345703 61.06267578 4.04345703 61.74267578 C-0.7226104 63.33136492 -3.67260526 61.83198331 -7.95654297 59.74267578 C-11.65427369 57.84046889 -15.30725759 55.86098789 -18.95654297 53.86767578 C-20.51332764 53.02124512 -20.51332764 53.02124512 -22.1015625 52.15771484 C-32.46633839 46.50249555 -42.74390092 40.69448323 -52.99902344 34.84326172 C-54.30085405 34.11132702 -55.6207312 33.41058166 -56.95654297 32.74267578 C-55.50428155 28.91398659 -53.62336284 27.48878048 -49.95654297 25.74267578 C-48.63654297 25.74267578 -47.31654297 25.74267578 -45.95654297 25.74267578 C-45.95654297 25.08267578 -45.95654297 24.42267578 -45.95654297 23.74267578 C-45.26318848 23.37094238 -44.56983398 22.99920898 -43.85546875 22.61621094 C-41.1931998 21.18803062 -38.53163764 19.75854222 -35.87042236 18.32839966 C-34.68057888 17.68939009 -33.49043515 17.05093928 -32.29998779 16.41305542 C-26.28412265 13.18941208 -20.27910585 9.95575574 -14.36279297 6.55126953 C-13.54536621 6.08317871 -12.72793945 5.61508789 -11.88574219 5.1328125 C-10.38130141 4.26598172 -8.88259087 3.3891069 -7.390625 2.50097656 C-2.47200766 -0.32511805 -2.47200766 -0.32511805 0 0 Z " fill="#3286FE" transform="translate(136.95654296875,301.25732421875)"/>
<path d="M0 0 C3.07732293 1.1522412 5.89419126 2.71046455 8.75268555 4.3137207 C9.37885269 4.66032745 10.00501984 5.0069342 10.65016174 5.36404419 C12.6464033 6.47055821 14.6389538 7.58354555 16.6315918 8.6965332 C17.96795553 9.43782403 19.30454187 10.17871372 20.64135742 10.91918945 C30.47877729 16.37936204 30.47877729 16.37936204 33.92480469 18.50952148 C38.33461298 21.05909757 42.3557262 21.10227704 47.1940918 19.8215332 C47.1940918 19.1615332 47.1940918 18.5015332 47.1940918 17.8215332 C50.56093094 15.38992715 51.92759544 14.8215332 56.1940918 14.8215332 C56.1940918 14.1615332 56.1940918 13.5015332 56.1940918 12.8215332 C62.6940918 8.8215332 62.6940918 8.8215332 67.1940918 8.8215332 C67.1940918 8.1615332 67.1940918 7.5015332 67.1940918 6.8215332 C69.22351452 5.5870179 71.26315604 4.3854004 73.3190918 3.1965332 C74.17374023 2.6705957 74.17374023 2.6705957 75.0456543 2.1340332 C78.38428796 0.23708226 79.82366834 -0.2636895 83.6237793 0.6105957 C84.89608398 1.21000977 84.89608398 1.21000977 86.1940918 1.8215332 C86.1940918 2.4815332 86.1940918 3.1415332 86.1940918 3.8215332 C87.2769043 4.2237207 87.2769043 4.2237207 88.3815918 4.6340332 C91.19175563 5.82054682 93.67825736 7.09638959 96.1940918 8.8215332 C96.1940918 9.4815332 96.1940918 10.1415332 96.1940918 10.8215332 C94.73871612 11.66002125 93.27968806 12.49217255 91.8190918 13.3215332 C91.00698242 13.7855957 90.19487305 14.2496582 89.3581543 14.7277832 C87.1940918 15.8215332 87.1940918 15.8215332 85.1940918 15.8215332 C85.1940918 16.4815332 85.1940918 17.1415332 85.1940918 17.8215332 C82.2240918 18.8115332 79.2540918 19.8015332 76.1940918 20.8215332 C76.1940918 21.4815332 76.1940918 22.1415332 76.1940918 22.8215332 C75.2659668 23.1927832 74.3378418 23.5640332 73.3815918 23.9465332 C68.92260092 25.83794941 64.75888813 28.22824866 60.54956055 30.61450195 C58.1940918 31.8215332 58.1940918 31.8215332 56.1940918 31.8215332 C56.1940918 32.4815332 56.1940918 33.1415332 56.1940918 33.8215332 C53.2240918 34.8115332 50.2540918 35.8015332 47.1940918 36.8215332 C47.1940918 37.4815332 47.1940918 38.1415332 47.1940918 38.8215332 C41.16074044 41.16099598 41.16074044 41.16099598 37.2019043 39.77075195 C22.61623683 32.96436503 8.53161145 24.73011998 -5.3684082 16.6340332 C-6.3075708 16.09407715 -7.2467334 15.55412109 -8.21435547 14.99780273 C-9.07085693 14.4923291 -9.9273584 13.98685547 -10.80981445 13.46606445 C-11.56077393 13.02625244 -12.3117334 12.58644043 -13.08544922 12.13330078 C-14.8059082 10.8215332 -14.8059082 10.8215332 -15.8059082 7.8215332 C-13.56411443 6.45188112 -11.31418483 5.10100513 -9.0559082 3.7590332 C-8.42168945 3.3690918 -7.7874707 2.97915039 -7.1340332 2.57739258 C-2.35869153 -0.23309497 -2.35869153 -0.23309497 0 0 Z " fill="#3587FE" transform="translate(95.805908203125,371.178466796875)"/>
<path d="M0 0 C5.07571157 3.26417814 9.53070498 7.41297246 12.2578125 12.8671875 C13.1933544 21.31379435 12.11623941 27.82579617 7.2578125 34.8671875 C4.10663573 38.09714369 1.73608613 39.3553848 -2.7421875 39.8671875 C-2.7421875 40.5271875 -2.7421875 41.1871875 -2.7421875 41.8671875 C-15.42208824 42.49249767 -15.42208824 42.49249767 -20.3046875 40.1796875 C-21.1090625 39.4165625 -21.9134375 38.6534375 -22.7421875 37.8671875 C-24.0725 36.8153125 -24.0725 36.8153125 -25.4296875 35.7421875 C-29.94285829 30.13121841 -31.33300958 23.08316525 -31.01953125 15.9609375 C-30.17921834 9.61716682 -27.32435578 6.02041216 -22.55859375 2.12890625 C-16.02880544 -2.40683918 -7.40125456 -3.05749832 0 0 Z " fill="#3B8BFC" transform="translate(359.7421875,317.1328125)"/>
<path d="M0 0 C0.67417969 0.24621094 1.34835938 0.49242187 2.04296875 0.74609375 C2.04296875 1.40609375 2.04296875 2.06609375 2.04296875 2.74609375 C3.03103516 3.09994141 3.03103516 3.09994141 4.0390625 3.4609375 C8.65869874 5.43734884 12.91102485 8.03033518 17.24804688 10.55664062 C17.93447266 10.95044922 18.62089844 11.34425781 19.328125 11.75 C19.9456665 12.10908447 20.56320801 12.46816895 21.19946289 12.83813477 C23.1285934 13.78826539 24.94459965 14.30068658 27.04296875 14.74609375 C27.04296875 15.40609375 27.04296875 16.06609375 27.04296875 16.74609375 C30.01296875 17.73609375 32.98296875 18.72609375 36.04296875 19.74609375 C36.04296875 20.40609375 36.04296875 21.06609375 36.04296875 21.74609375 C38.35296875 21.74609375 40.66296875 21.74609375 43.04296875 21.74609375 C43.04296875 21.08609375 43.04296875 20.42609375 43.04296875 19.74609375 C45.99746788 18.07256005 48.95717055 16.4084539 51.91796875 14.74609375 C52.75972656 14.26914062 53.60148437 13.7921875 54.46875 13.30078125 C55.27441406 12.84960938 56.08007812 12.3984375 56.91015625 11.93359375 C57.65378418 11.51464844 58.39741211 11.09570312 59.16357422 10.6640625 C61.04296875 9.74609375 61.04296875 9.74609375 63.04296875 9.74609375 C64.375 11.171875 64.375 11.171875 65.85546875 13.05859375 C68.31851442 16.06024154 70.63493303 17.8416032 74.04296875 19.74609375 C74.04296875 20.40609375 74.04296875 21.06609375 74.04296875 21.74609375 C73.32753906 22.14401123 72.61210937 22.54192871 71.875 22.9519043 C69.18283142 24.45057673 66.49171736 25.9511218 63.80126953 27.45288086 C62.07923983 28.41336313 60.35603831 29.37174349 58.6328125 30.33007812 C57.53066406 30.94560547 56.42851562 31.56113281 55.29296875 32.1953125 C54.21144531 32.79520996 53.12992187 33.39510742 52.015625 34.01318359 C49.46239121 35.5015914 47.12363759 37.10291253 44.73046875 38.828125 C41.64943199 40.75643389 41.10363744 40.75126753 37.1953125 40.41796875 C32.01208497 38.6183945 27.31548892 35.76882637 22.60546875 32.99609375 C20.58270557 31.82435599 18.55924096 30.65382844 16.53515625 29.484375 C15.48295898 28.87416504 14.43076172 28.26395508 13.34667969 27.63525391 C9.93725039 25.68564085 6.50027897 23.7913577 3.05078125 21.9140625 C1.91181396 21.29047852 0.77284668 20.66689453 -0.40063477 20.02441406 C-2.61561412 18.814113 -4.83476058 17.61140167 -7.05834961 16.41699219 C-8.06260986 15.86430664 -9.06687012 15.31162109 -10.1015625 14.7421875 C-11.43731323 14.01793579 -11.43731323 14.01793579 -12.80004883 13.27905273 C-15.13386324 11.62041995 -15.94191338 10.38796202 -16.95703125 7.74609375 C-14.73748474 6.37351898 -12.50867716 5.02350224 -10.26953125 3.68359375 C-9.64369141 3.29365234 -9.01785156 2.90371094 -8.37304688 2.50195312 C-5.3783631 0.73022921 -3.52064212 -0.30230084 0 0 Z " fill="#3587FD" transform="translate(96.95703125,347.25390625)"/>
<path d="M0 0 C20.4535809 0 20.4535809 0 28.3125 5.9375 C28.96863281 6.42089844 29.62476563 6.90429688 30.30078125 7.40234375 C33.07656558 10.01221913 33.88565578 12.11172593 34.37109375 15.8828125 C34.53188109 23.73301811 33.5754937 29.50454437 29 36 C26.375 38.625 26.375 38.625 24 40 C23.01 40 22.02 40 21 40 C21 40.66 21 41.32 21 42 C14.20130732 43.69967317 7.00793201 43 0 43 C0 28.81 0 14.62 0 0 Z " fill="#3E8CFC" transform="translate(378,316)"/>
<path d="M0 0 C3 1 3 1 4.1328125 2.63671875 C6.13103025 6.76689322 7.53708186 10.37081861 8 15 C8.66 15 9.32 15 10 15 C10.48919922 16.22976563 10.48919922 16.22976563 10.98828125 17.484375 C11.64376953 19.10085938 11.64376953 19.10085938 12.3125 20.75 C12.74175781 21.81734375 13.17101562 22.8846875 13.61328125 23.984375 C14.8532663 26.68090587 16.19476738 28.67538482 18 31 C18.69100553 32.99172182 19.35902703 34.99161804 20 37 C20.66 37.99 21.32 38.98 22 40 C22 40.99 22 41.98 22 43 C19.36 43 16.72 43 14 43 C12.92474806 40.34771188 11.90543849 37.71631546 11 35 C1.1 35.495 1.1 35.495 -9 36 C-9.66 38.31 -10.32 40.62 -11 43 C-13.64 43 -16.28 43 -19 43 C-18.43653072 39.45200112 -17.54502898 36.87771036 -15.6875 33.8125 C-13.95315565 30.80073489 -12.48049728 27.87419328 -11.25 24.625 C-8.02874627 16.19605274 -3.90903175 8.12588098 0 0 Z " fill="#408DFC" transform="translate(240,316)"/>
<path d="M0 0 C2 0 2 0 3.3046875 1.29296875 C3.82289063 1.91816406 4.34109375 2.54335938 4.875 3.1875 C8.70037803 7.69741936 12.69666619 12.02503352 16.73583984 16.3425293 C17.22906738 16.87273682 17.72229492 17.40294434 18.23046875 17.94921875 C18.66770264 18.41674561 19.10493652 18.88427246 19.55541992 19.3659668 C21.45019284 21.50923453 23.21291779 23.76614724 25 26 C25.33 17.42 25.66 8.84 26 0 C28.31 0 30.62 0 33 0 C33 13.86 33 27.72 33 42 C24.81600286 37.90800143 19.11044646 29.89293971 13.296875 22.97265625 C12.76578125 22.34230469 12.2346875 21.71195312 11.6875 21.0625 C11.21699219 20.49660156 10.74648438 19.93070312 10.26171875 19.34765625 C9.02049527 17.86554616 9.02049527 17.86554616 7 17 C7 25.58 7 34.16 7 43 C4.69 43 2.38 43 0 43 C0 28.81 0 14.62 0 0 Z " fill="#3F8DFC" transform="translate(497,316)"/>
<path d="M0 0 C6.83464829 5.85826996 6.83464829 5.85826996 7.640625 10.46484375 C7.88289641 16.77255302 7.04928719 20.86511392 3.1875 25.875 C-1.65448674 29.43478816 -5.83441429 29.54650618 -11.69921875 29.43359375 C-15.9027526 28.67938379 -17.47629621 27.12310003 -19.859375 23.69921875 C-22.49179524 18.66093903 -22.38369695 13.42037035 -21.8125 7.875 C-17.48781666 -1.09471359 -9.13773358 -3.65509343 0 0 Z " fill="#C2D7E7" transform="translate(357.8125,323.125)"/>
<path d="M0 0 C3.17334141 0.72909162 4.89452027 2.2693499 7.01953125 4.67578125 C8.72891525 7.59439615 8.46628198 10.20936895 8.07421875 13.4765625 C9.39421875 13.4765625 10.71421875 13.4765625 12.07421875 13.4765625 C12.07421875 19.4165625 12.07421875 25.3565625 12.07421875 31.4765625 C3.16421875 31.4765625 -5.74578125 31.4765625 -14.92578125 31.4765625 C-14.92578125 25.5365625 -14.92578125 19.5965625 -14.92578125 13.4765625 C-13.27578125 13.4765625 -11.62578125 13.4765625 -9.92578125 13.4765625 C-9.88839844 12.78949219 -9.85101563 12.10242188 -9.8125 11.39453125 C-9.74675781 10.49347656 -9.68101562 9.59242188 -9.61328125 8.6640625 C-9.55527344 7.77074219 -9.49726563 6.87742187 -9.4375 5.95703125 C-8.34372404 0.65514014 -5.19826747 -0.2113898 0 0 Z " fill="#BED5E7" transform="translate(191.92578125,314.5234375)"/>
<path d="M0 0 C4.93264249 -1.14507772 4.93264249 -1.14507772 8 0 C11.23527953 4.04956441 13.62640284 8.40431187 16 13 C16.49371094 12.14535156 16.98742187 11.29070312 17.49609375 10.41015625 C18.13675781 9.30542969 18.77742187 8.20070313 19.4375 7.0625 C20.07558594 5.96035156 20.71367188 4.85820312 21.37109375 3.72265625 C23 1 23 1 24 0 C26.33297433 -0.04092937 28.66705225 -0.04241723 31 0 C30.67 1.65 30.34 3.3 30 5 C29.34 5 28.68 5 28 5 C27.773125 5.66 27.54625 6.32 27.3125 7 C25.87669485 10.28184034 24.02977023 12.95352647 21.92578125 15.83984375 C20.54997167 19.05006611 20.99029005 20.64887604 22 24 C23.67407794 27.04275223 25.59716369 29.88909846 27.5625 32.75 C28.58853472 34.262988 29.61087014 35.77849349 30.62890625 37.296875 C31.3106189 38.29219238 31.3106189 38.29219238 32.00610352 39.30761719 C33 41 33 41 33 43 C30.03 43 27.06 43 24 43 C23.5875 41.989375 23.175 40.97875 22.75 39.9375 C21.60142363 37.23367428 20.30562706 34.71678285 18.8125 32.1875 C17 29 17 29 17 27 C13.76612108 29.95267206 11.77754751 32.87922748 9.75 36.75 C9.22921875 37.73484375 8.7084375 38.7196875 8.171875 39.734375 C7.59179688 40.85585938 7.59179688 40.85585938 7 42 C4.69 42 2.38 42 0 42 C0.60361666 39.12096976 1.4695969 36.95582716 3.03125 34.46875 C3.42957031 33.82292969 3.82789063 33.17710937 4.23828125 32.51171875 C5.07942708 31.17057292 5.92057292 29.82942708 6.76171875 28.48828125 C7.16003906 27.84246094 7.55835938 27.19664062 7.96875 26.53125 C8.33419922 25.94923828 8.69964844 25.36722656 9.07617188 24.76757812 C10.09576045 22.81677968 10.68301072 21.18042757 11 19 C9.58506792 16.1759325 9.58506792 16.1759325 7.5625 13.375 C4 8.1741683 4 8.1741683 4 6 C2.68 5.34 1.36 4.68 0 4 C0 2.68 0 1.36 0 0 Z " fill="#3F8DFC" transform="translate(601,316)"/>
<path d="M0 0 C1.98 0 3.96 0 6 0 C6.0093457 0.8470752 6.01869141 1.69415039 6.02832031 2.56689453 C6.07252612 5.73194352 6.13422527 8.89604812 6.20751953 12.06054688 C6.23561623 13.42598164 6.25688677 14.79157564 6.27099609 16.15722656 C6.29257982 18.12854038 6.3413546 20.09949631 6.390625 22.0703125 C6.41157227 23.25383301 6.43251953 24.43735352 6.45410156 25.65673828 C7.10480154 29.6418391 8.49918063 31.86432125 11 35 C12.95102446 35.92869604 12.95102446 35.92869604 15 35.75 C15.66 35.76546875 16.32 35.7809375 17 35.796875 C20.29416259 34.48435709 21.29380169 32.01741911 23 29 C23.63224723 25.63122166 23.63224723 25.63122166 23.609375 22.0703125 C23.64160156 20.78125 23.67382812 19.4921875 23.70703125 18.1640625 C23.7217723 16.81771285 23.73609 15.4713585 23.75 14.125 C23.77818712 12.75517097 23.80811837 11.38537665 23.83984375 10.015625 C23.91037757 6.67702398 23.96315985 3.33911485 24 0 C25.98 0 27.96 0 30 0 C30.07465394 4.14425088 30.12883721 8.28813624 30.16479492 12.43286133 C30.17979877 13.84015734 30.20020863 15.24740724 30.22631836 16.65454102 C30.26307665 18.68777907 30.27980984 20.72039432 30.29296875 22.75390625 C30.3086792 23.97408447 30.32438965 25.1942627 30.34057617 26.45141602 C29.82083481 31.86678571 28.08008757 35.66410221 24.625 39.9375 C20.58617379 42.9996831 15.87399517 42.68056409 11.00390625 42.4921875 C8 42 8 42 4.875 39.75 C4.25625 38.8425 3.6375 37.935 3 37 C2.47237061 36.44022461 1.94474121 35.88044922 1.40112305 35.30371094 C-0.56715034 32.06749771 -0.37401229 29.06069815 -0.29296875 25.390625 C-0.28872391 24.66381531 -0.28447906 23.93700562 -0.28010559 23.18817139 C-0.2633613 20.87506496 -0.22571885 18.56284145 -0.1875 16.25 C-0.17244758 14.67839803 -0.15876015 13.10678236 -0.14648438 11.53515625 C-0.11347195 7.68976585 -0.06172056 3.84503244 0 0 Z " fill="#3889FD" transform="translate(264,317)"/>
<path d="M0 0 C3.3 0 6.6 0 10 0 C10 0.66 10 1.32 10 2 C10.721875 2.04125 11.44375 2.0825 12.1875 2.125 C15.2737768 3.085175 17.07373567 4.2759604 19.0390625 6.8671875 C21.21739837 11.70203053 20.88140196 16.87411624 20 22 C17.94670331 26.51304801 15.15591686 29.19588393 11.125 32 C8 33 8 33 0 33 C0 22.11 0 11.22 0 0 Z " fill="#C0D6E7" transform="translate(385,321)"/>
<path d="M0 0 C1.00933594 -0.0309375 1.00933594 -0.0309375 2.0390625 -0.0625 C6.21067794 -0.09534737 8.60077629 0.30332048 11.625 3.25 C11.295 4.9 10.965 6.55 10.625 8.25 C9.55572266 8.01410156 9.55572266 8.01410156 8.46484375 7.7734375 C3.32263833 6.82563072 -2.49013625 5.95041089 -7.38671875 8.15625 C-9.98011483 10.11542573 -11.26964215 11.91887532 -12.25 15 C-12.29125 16.0725 -12.3325 17.145 -12.375 18.25 C-12.4471875 18.94351562 -12.519375 19.63703125 -12.59375 20.3515625 C-13.01578386 26.49215522 -11.33303109 30.54833882 -7.375 35.25 C-4.80769226 36.53365387 -2.92847003 36.38275635 -0.0625 36.375 C0.88238281 36.37757813 1.82726562 36.38015625 2.80078125 36.3828125 C5.51095736 36.255363 7.98473585 35.85596226 10.625 35.25 C11.12 37.725 11.12 37.725 11.625 40.25 C5.70105482 44.4717908 -0.36163682 43.98434038 -7.375 43.25 C-13.2429133 40.57340797 -16.63595543 35.82858333 -20.1875 30.5625 C-22.34493287 24.54439778 -21.99911359 18.7048468 -20.4375 12.5625 C-15.38480693 4.44756871 -9.43403809 0.07146999 0 0 Z " fill="#3E8CFC" transform="translate(557.375,315.75)"/>
<path d="M0 0 C9.57 0 19.14 0 29 0 C29 1.65 29 3.3 29 5 C25.37 5 21.74 5 18 5 C18 17.54 18 30.08 18 43 C15.69 43 13.38 43 11 43 C11 30.79 11 18.58 11 6 C7.37 6 3.74 6 0 6 C0 4.02 0 2.04 0 0 Z " fill="#428FFB" transform="translate(298,316)"/>
<path d="M0 0 C5.94 0 11.88 0 18 0 C18 1.32 18 2.64 18 4 C14.04 4 10.08 4 6 4 C6 8.29 6 12.58 6 17 C9.3 17 12.6 17 16 17 C16 18.65 16 20.3 16 22 C12.7 22 9.4 22 6 22 C6 26.95 6 31.9 6 37 C10.62 37 15.24 37 20 37 C20 38.65 20 40.3 20 42 C13.4 42 6.8 42 0 42 C0 28.14 0 14.28 0 0 Z " fill="#3688FD" transform="translate(576,317)"/>
<path d="M0 0 C5.94 0 11.88 0 18 0 C18 1.32 18 2.64 18 4 C14.04 4 10.08 4 6 4 C6 8.29 6 12.58 6 17 C9.3 17 12.6 17 16 17 C16 18.65 16 20.3 16 22 C12.7 22 9.4 22 6 22 C6 26.95 6 31.9 6 37 C10.62 37 15.24 37 20 37 C20 38.65 20 40.3 20 42 C13.4 42 6.8 42 0 42 C0 28.14 0 14.28 0 0 Z " fill="#3688FD" transform="translate(471,317)"/>
<path d="M0 0 C5.94 0 11.88 0 18 0 C18 1.32 18 2.64 18 4 C14.04 4 10.08 4 6 4 C6 8.29 6 12.58 6 17 C9.3 17 12.6 17 16 17 C16 18.65 16 20.3 16 22 C12.7 22 9.4 22 6 22 C6 26.95 6 31.9 6 37 C10.62 37 15.24 37 20 37 C20 38.65 20 40.3 20 42 C13.4 42 6.8 42 0 42 C0 28.14 0 14.28 0 0 Z " fill="#3688FD" transform="translate(418,317)"/>
<path d="M0 0 C6.6 0 13.2 0 20 0 C20 1.65 20 3.3 20 5 C15.38 5 10.76 5 6 5 C6 9.62 6 14.24 6 19 C9.63 19 13.26 19 17 19 C17 20.32 17 21.64 17 23 C13.37 23 9.74 23 6 23 C6 29.6 6 36.2 6 43 C4.02 43 2.04 43 0 43 C0 28.81 0 14.62 0 0 Z " fill="#3989FD" transform="translate(445,316)"/>
<path d="M0 0 C0.99 0 1.98 0 3 0 C3 1.65 3 3.3 3 5 C4.98 5 6.96 5 9 5 C9.28875 5.639375 9.5775 6.27875 9.875 6.9375 C10.82823451 9.15206079 10.82823451 9.15206079 13 10 C13.33 8.68 13.66 7.36 14 6 C17 7 17 7 18 9 C18.433125 8.34 18.86625 7.68 19.3125 7 C19.869375 6.34 20.42625 5.68 21 5 C21.99 5 22.98 5 24 5 C24.33 5.99 24.66 6.98 25 8 C25.37125 7.505 25.7425 7.01 26.125 6.5 C28 5 28 5 30.9375 4.5625 C34 5 34 5 36.375 6.5625 C38.54455002 9.81682503 38.29451507 12.17130414 38 16 C34.59575912 18.09491746 31.96585158 18.49573145 28 18 C25.15219381 15.76793569 24.15002334 14.45007001 23 11 C22.01 12.65 21.02 14.3 20 16 C17.00667261 15.0022242 16.05233685 14.2477975 14 12 C13.34 13.32 12.68 14.64 12 16 C11.34 15.67 10.68 15.34 10 15 C10 14.34 10 13.68 10 13 C9.34 13 8.68 13 8 13 C7.67 11.35 7.34 9.7 7 8 C5.68 8 4.36 8 3 8 C3 11.3 3 14.6 3 18 C1.68 18 0.36 18 -1 18 C-1.223293 15.93906592 -1.42802887 13.8761161 -1.625 11.8125 C-1.74101562 10.66394531 -1.85703125 9.51539063 -1.9765625 8.33203125 C-2.00023426 4.96669584 -1.47419799 2.98778294 0 0 Z " fill="#63A1F6" transform="translate(507,378)"/>
<path d="M0 0 C1.890625 0.18359375 1.890625 0.18359375 4 1 C5.046875 3.28515625 5.046875 3.28515625 5.75 6.0625 C5.99234375 6.98160156 6.2346875 7.90070313 6.484375 8.84765625 C6.65453125 9.55792969 6.8246875 10.26820313 7 11 C7.66 11 8.32 11 9 11 C9.12375 10.0925 9.2475 9.185 9.375 8.25 C9.92109677 5.41029677 10.57263803 3.47409409 12 1 C15 2 15 2 16.1875 4.3125 C17 7 17 7 17 11 C17.66 11 18.32 11 19 11 C19.103125 10.484375 19.20625 9.96875 19.3125 9.4375 C20.24263866 6.13973565 21.61395512 3.13366668 23 0 C25.31 0 27.62 0 30 0 C30 2.64 30 5.28 30 8 C31.11375 7.95875 32.2275 7.9175 33.375 7.875 C37 8 37 8 39 10 C39.1953125 12.3828125 39.1953125 12.3828125 39.125 15.125 C39.10695313 16.03507812 39.08890625 16.94515625 39.0703125 17.8828125 C39.04710937 18.58148438 39.02390625 19.28015625 39 20 C37.68 20 36.36 20 35 20 C35 16.7 35 13.4 35 10 C34.01 10.33 33.02 10.66 32 11 C31.67 13.97 31.34 16.94 31 20 C29.68 20 28.36 20 27 20 C26.67 14.39 26.34 8.78 26 3 C25.01 5.64 24.02 8.28 23 11 C22.34 11 21.68 11 21 11 C20.34 13.31 19.68 15.62 19 18 C15.125 14.25 15.125 14.25 14 12 C13.01 12.33 12.02 12.66 11 13 C10.835 13.66 10.67 14.32 10.5 15 C10.335 15.66 10.17 16.32 10 17 C9.01 17.33 8.02 17.66 7 18 C3.55913965 12.83870948 0 6.29739667 0 0 Z " fill="#5B9CF7" transform="translate(392,376)"/>
<path d="M0 0 C3.4375 1.3125 3.4375 1.3125 6 4 C7.02622092 9.09193585 6.69563097 13.45751393 4.5625 18.1875 C1.33869888 20.46774957 -0.83108533 20.83931738 -4.73828125 20.61328125 C-8.21351423 19.67094692 -9.88765014 17.87510653 -11.95703125 15 C-13.68847362 11.67978092 -13.79514342 9.64440734 -13 6 C-9.71976056 0.77463613 -6.23215367 -1.11288458 0 0 Z " fill="#4F96F9" transform="translate(266,376)"/>
<path d="M0 0 C2.97922593 -0.02683987 5.95821295 -0.04676037 8.9375 -0.0625 C9.78763672 -0.07087891 10.63777344 -0.07925781 11.51367188 -0.08789062 C12.32255859 -0.09111328 13.13144531 -0.09433594 13.96484375 -0.09765625 C14.7137085 -0.10289307 15.46257324 -0.10812988 16.23413086 -0.11352539 C18 0 18 0 19 1 C19.04080783 2.99958364 19.04254356 5.00045254 19 7 C19.78375 6.95875 20.5675 6.9175 21.375 6.875 C24 7 24 7 26 9 C26.1953125 11.6015625 26.1953125 11.6015625 26.125 14.625 C26.10695313 15.62789063 26.08890625 16.63078125 26.0703125 17.6640625 C26.04710937 18.43492187 26.02390625 19.20578125 26 20 C25.01 20 24.02 20 23 20 C23 16.7 23 13.4 23 10 C21.68 10.33 20.36 10.66 19 11 C18.67 13.97 18.34 16.94 18 20 C16.68 20 15.36 20 14 20 C14 14.39 14 8.78 14 3 C12.35 3 10.7 3 9 3 C9 8.61 9 14.22 9 20 C7.68 20 6.36 20 5 20 C5 14.39 5 8.78 5 3 C3.35 3 1.7 3 0 3 C0 2.01 0 1.02 0 0 Z " fill="#84B4F1" transform="translate(308,376)"/>
<path d="M0 0 C2.6768096 0.05286339 4.18684588 0.249722 6.6875 1.3125 C8.96866718 4.2590076 8.50515543 6.62872805 8.1875 10.25 C7.98125 10.9925 7.775 11.735 7.5625 12.5 C7.43875 13.0775 7.315 13.655 7.1875 14.25 C8.1775 15.735 8.1775 15.735 9.1875 17.25 C9.1875 18.24 9.1875 19.23 9.1875 20.25 C7.375 20.0625 7.375 20.0625 5.1875 19.25 C3.5625 16.75 3.5625 16.75 2.1875 14.25 C1.5275 13.92 0.8675 13.59 0.1875 13.25 C0.1875 15.56 0.1875 17.87 0.1875 20.25 C-1.4625 20.25 -3.1125 20.25 -4.8125 20.25 C-4.84138514 17.10418577 -4.85925923 13.95840531 -4.875 10.8125 C-4.88337891 9.91466797 -4.89175781 9.01683594 -4.90039062 8.09179688 C-4.90361328 7.23779297 -4.90683594 6.38378906 -4.91015625 5.50390625 C-4.91801147 4.31776733 -4.91801147 4.31776733 -4.92602539 3.10766602 C-4.71161309 -0.40085703 -3.66324175 0.24021257 0 0 Z " fill="#79AEF2" transform="translate(578.8125,375.75)"/>
<path d="M0 0 C1.32 0 2.64 0 4 0 C4 6.6 4 13.2 4 20 C-4.30078125 20.390625 -4.30078125 20.390625 -7 20 C-9.43815473 17.57224252 -9.95276521 16.38575078 -10.375 12.9375 C-10 10 -10 10 -8.875 8.125 C-6.21965017 6.5317901 -4.03210482 6.79785968 -1 7 C-1.020625 6.030625 -1.04125 5.06125 -1.0625 4.0625 C-1 1 -1 1 0 0 Z " fill="#3B8BFC" transform="translate(668,376)"/>
<path d="M0 0 C0.66 0 1.32 0 2 0 C3.39131742 1.59711646 4.71517335 3.25352684 6 4.9375 C8.54336771 8.51216924 8.54336771 8.51216924 12 11 C12 7.37 12 3.74 12 0 C13.32 0 14.64 0 16 0 C16 6.6 16 13.2 16 20 C15.01 20 14.02 20 13 20 C11.96564444 18.35443434 10.97236487 16.6829392 10 15 C8.37163262 13.2958946 6.71230248 11.61974559 5 10 C5 13.3 5 16.6 5 20 C3.35 20 1.7 20 0 20 C0 13.4 0 6.8 0 0 Z " fill="#76ACF3" transform="translate(474,376)"/>
<path d="M0 0 C1.60875 -0.061875 3.2175 -0.12375 4.875 -0.1875 C5.77992188 -0.22230469 6.68484375 -0.25710938 7.6171875 -0.29296875 C8.79667969 -0.14794922 8.79667969 -0.14794922 10 0 C12.46324069 3.69486103 12.38991688 5.63293092 12 10 C10.8125 11.9375 10.8125 11.9375 9 13 C6.3125 13.1875 6.3125 13.1875 4 13 C4 12.34 4 11.68 4 11 C3.34 11 2.68 11 2 11 C2 13.31 2 15.62 2 18 C1.34 18 0.68 18 0 18 C0 12.06 0 6.12 0 0 Z " fill="#64A2F6" transform="translate(615,383)"/>
<path d="M0 0 C2.54014875 3.81022313 2.58606955 6.53470816 2 11 C0.875 13 0.875 13 -1 14 C-4.08815875 14.38601984 -6.10184376 14.47901666 -8.875 13 C-10.68723346 9.77825164 -10.5327028 6.60137103 -10 3 C-7.8345233 -1.07619143 -4.1908017 -0.45717837 0 0 Z " fill="#C0D5E7" transform="translate(267,379)"/>
<path d="M0 0 C0 3.63 0 7.26 0 11 C-9.625 12.25 -9.625 12.25 -13 10 C-13.40843923 7.28796348 -13.13336867 4.7562858 -13 2 C-8.57669127 -0.57688169 -5.0308706 -0.14796678 0 0 Z " fill="#599BF8" transform="translate(372,384)"/>
<path d="M0 0 C2.31 0 4.62 0 7 0 C7 2.64 7 5.28 7 8 C8.11375 7.95875 9.2275 7.9175 10.375 7.875 C14 8 14 8 16 10 C16.1953125 12.3828125 16.1953125 12.3828125 16.125 15.125 C16.09792969 16.49011719 16.09792969 16.49011719 16.0703125 17.8828125 C16.04710937 18.58148438 16.02390625 19.28015625 16 20 C14.68 20 13.36 20 12 20 C12 16.7 12 13.4 12 10 C11.01 10.33 10.02 10.66 9 11 C8.67 13.97 8.34 16.94 8 20 C6.68 20 5.36 20 4 20 C3.93941406 18.79601562 3.87882812 17.59203125 3.81640625 16.3515625 C3.73200268 14.77602923 3.64735459 13.20050904 3.5625 11.625 C3.52318359 10.8309375 3.48386719 10.036875 3.44335938 9.21875 C3.31106596 4.97398779 3.31106596 4.97398779 2 1 C1.34 0.67 0.68 0.34 0 0 Z " fill="#5E9EF7" transform="translate(415,376)"/>
<path d="M0 0 C3.1875 0.3125 3.1875 0.3125 5.5625 1.875 C7.73205002 5.12932503 7.48201507 7.48380414 7.1875 11.3125 C3.79992079 13.39716413 1.13476562 13.74155061 -2.8125 13.3125 C-5.027515 9.9899775 -5.00660876 9.43518409 -4.5 5.6875 C-4.40074219 4.89085937 -4.30148437 4.09421875 -4.19921875 3.2734375 C-3.59128448 0.19078088 -3.22588196 0.35843133 0 0 Z " fill="#5499F8" transform="translate(537.8125,382.6875)"/>
<path d="M0 0 C3.5625 0.25 3.5625 0.25 6.5625 2.25 C6.42200482 3.72968324 6.27495174 5.20874516 6.125 6.6875 C6.04378906 7.51121094 5.96257813 8.33492188 5.87890625 9.18359375 C5.5625 11.25 5.5625 11.25 4.5625 12.25 C-1.60448656 12.70681382 -1.60448656 12.70681382 -4.375 11.1875 C-6.02912584 8.17115289 -5.74325763 5.61333392 -5.4375 2.25 C-3.4375 0.25 -3.4375 0.25 0 0 Z " fill="#4791FB" transform="translate(635.4375,383.75)"/>
<path d="M0 0 C2 2 2 2 2.3125 5.4375 C2 9 2 9 0.875 10.9375 C-1.92162472 12.52225401 -3.8493196 12.45947423 -7 12 C-8.875 10.375 -8.875 10.375 -10 8 C-10.1875 4.75 -10.1875 4.75 -10 2 C-6.60535554 -0.08901197 -3.95158471 -0.34361606 0 0 Z " fill="#4B94FA" transform="translate(443,384)"/>
<path d="M0 0 C2.375 1.75 2.375 1.75 4 4 C4 5.32 4 6.64 4 8 C1.03 8 -1.94 8 -5 8 C-5 8.66 -5 9.32 -5 10 C-3.02 10 -1.04 10 1 10 C1 10.99 1 11.98 1 13 C-5.42210386 13.48468708 -5.42210386 13.48468708 -7.9375 11.375 C-9.295454 8.33957342 -9.42030443 6.29238472 -9 3 C-6.79244709 -0.67925486 -4.01747809 -0.57392544 0 0 Z " fill="#71A9F4" transform="translate(298,383)"/>
<path d="M0 0 C1.875 1.1875 1.875 1.1875 3 3 C3.1875 5.6875 3.1875 5.6875 3 8 C0.69 8.33 -1.62 8.66 -4 9 C-2.35 9.33 -0.7 9.66 1 10 C1 10.99 1 11.98 1 13 C-5.42210386 13.48468708 -5.42210386 13.48468708 -7.9375 11.375 C-9.295454 8.33957342 -9.42030443 6.29238472 -9 3 C-6.79086995 -0.68188342 -4.01844539 -0.50230567 0 0 Z " fill="#61A0F6" transform="translate(463,383)"/>
<path d="M0 0 C0.99 0 1.98 0 3 0 C3 3.63 3 7.26 3 11 C3.66 11 4.32 11 5 11 C5.66 9.68 6.32 8.36 7 7 C7.99 7 8.98 7 10 7 C10 7.99 10 8.98 10 10 C9.01 10.495 9.01 10.495 8 11 C8.58803797 14.02419525 9.22678118 17.01758453 10 20 C8.68 20 7.36 20 6 20 C5.87625 19.360625 5.7525 18.72125 5.625 18.0625 C5.41875 17.381875 5.2125 16.70125 5 16 C4.34 15.67 3.68 15.34 3 15 C3 16.65 3 18.3 3 20 C2.01 20 1.02 20 0 20 C0 13.4 0 6.8 0 0 Z " fill="#5097F9" transform="translate(556,376)"/>
<path d="M0 0 C3.125 0.25 3.125 0.25 5 1.4375 C6.47281139 3.81036279 6.34723194 5.50913944 6.125 8.25 C3.485 8.25 0.845 8.25 -1.875 8.25 C-1.875 8.91 -1.875 9.57 -1.875 10.25 C0.435 10.25 2.745 10.25 5.125 10.25 C4.795 11.24 4.465 12.23 4.125 13.25 C0.75 13.4375 0.75 13.4375 -2.875 13.25 C-5.090015 9.9274775 -5.06910876 9.37268409 -4.5625 5.625 C-4.46324219 4.82835937 -4.36398437 4.03171875 -4.26171875 3.2109375 C-3.64651629 0.09142605 -3.28019094 0.28523399 0 0 Z " fill="#4791FB" transform="translate(594.875,382.75)"/>
<path d="M0 0 C0.99 0.66 1.98 1.32 3 2 C3.1875 5.125 3.1875 5.125 3 8 C0.36 8 -2.28 8 -5 8 C-5 8.66 -5 9.32 -5 10 C-2.69 10 -0.38 10 2 10 C1.67 10.99 1.34 11.98 1 13 C-2.375 13.1875 -2.375 13.1875 -6 13 C-8.46324069 9.30513897 -8.38991688 7.36706908 -8 3 C-5.93706486 -0.36584155 -3.7703497 -0.47129371 0 0 Z " fill="#5197F9" transform="translate(354,383)"/>
<path d="M0 0 C0.99 0.33 1.98 0.66 3 1 C4.38671875 3.94140625 4.38671875 3.94140625 5.6875 7.5625 C6.34298828 9.35880859 6.34298828 9.35880859 7.01171875 11.19140625 C7.33785156 12.11824219 7.66398438 13.04507812 8 14 C3.71 14 -0.58 14 -5 14 C-4.23539233 10.17696167 -3.52385218 7.61606762 -1.9375 4.1875 C-1.39416016 3.00220703 -1.39416016 3.00220703 -0.83984375 1.79296875 C-0.56269531 1.20128906 -0.28554687 0.60960937 0 0 Z " fill="#C0D6E7" transform="translate(240,330)"/>
<path d="M0 0 C1.60875 -0.061875 3.2175 -0.12375 4.875 -0.1875 C5.77992188 -0.22230469 6.68484375 -0.25710938 7.6171875 -0.29296875 C8.79667969 -0.14794922 8.79667969 -0.14794922 10 0 C12.13586678 3.20380017 12.23132175 4.01939967 12.125 7.6875 C12.10695313 8.49574219 12.08890625 9.30398438 12.0703125 10.13671875 C12.03550781 11.05904297 12.03550781 11.05904297 12 12 C11.01 12 10.02 12 9 12 C8.67 9.36 8.34 6.72 8 4 C7.01 4 6.02 4 5 4 C4.67 6.97 4.34 9.94 4 13 C2.68 13 1.36 13 0 13 C0 8.71 0 4.42 0 0 Z " fill="#5F9FF7" transform="translate(644,383)"/>
<path d="M0 0 C1.60875 -0.020625 3.2175 -0.04125 4.875 -0.0625 C5.77992188 -0.07410156 6.68484375 -0.08570313 7.6171875 -0.09765625 C10 0 10 0 12 1 C12 4.63 12 8.26 12 12 C10.68 12 9.36 12 8 12 C8 8.7 8 5.4 8 2 C6.02 2.99 6.02 2.99 4 4 C3.18129815 7.56206661 3.18129815 7.56206661 3 11 C2.01 11 1.02 11 0 11 C0 7.37 0 3.74 0 0 Z " fill="#5A9CF7" transform="translate(275,384)"/>
<path d="M0 0 C3.5 0.25 3.5 0.25 5.5 2.25 C5.5 3.57 5.5 4.89 5.5 6.25 C2.86 6.25 0.22 6.25 -2.5 6.25 C-2.5 7.24 -2.5 8.23 -2.5 9.25 C-0.19 9.25 2.12 9.25 4.5 9.25 C4.17 10.24 3.84 11.23 3.5 12.25 C-1.86842105 12.60789474 -1.86842105 12.60789474 -4.375 11.1875 C-6.11973477 8.18267901 -5.80835443 5.64189869 -5.5 2.25 C-3.5 0.25 -3.5 0.25 0 0 Z " fill="#4892FA" transform="translate(497.5,383.75)"/>
<path d="M0 0 C0.66 0 1.32 0 2 0 C2 2.64 2 5.28 2 8 C2.66 7.67 3.32 7.34 4 7 C7.0625 6.875 7.0625 6.875 10 7 C11 8 11 8 11.09765625 10.50390625 C11.08605469 11.51324219 11.07445312 12.52257812 11.0625 13.5625 C11.05347656 14.57441406 11.04445313 15.58632813 11.03515625 16.62890625 C11.02355469 17.41136719 11.01195312 18.19382812 11 19 C10.01 19 9.02 19 8 19 C8 15.7 8 12.4 8 9 C6.35 9.66 4.7 10.32 3 11 C2.67 13.31 2.34 15.62 2 18 C1.34 18 0.68 18 0 18 C0 12.06 0 6.12 0 0 Z " fill="#4E95FA" transform="translate(323,377)"/>
<path d="M0 0 C1.98 0 3.96 0 6 0 C4.68 0.33 3.36 0.66 2 1 C2 3.97 2 6.94 2 10 C5.465 9.505 5.465 9.505 9 9 C9 7.35 9 5.7 9 4 C9.33 4 9.66 4 10 4 C9.96519531 4.92232422 9.96519531 4.92232422 9.9296875 5.86328125 C9.91164063 6.67152344 9.89359375 7.47976563 9.875 8.3125 C9.84019531 9.51326172 9.84019531 9.51326172 9.8046875 10.73828125 C9.84182678 13.28388576 9.84182678 13.28388576 12 16 C12 16.99 12 17.98 12 19 C10.125 18.75 10.125 18.75 8 18 C6.27898465 15.41847698 6 14.15081975 6 11 C4.68 11 3.36 11 2 11 C2 13.31 2 15.62 2 18 C1.34 18 0.68 18 0 18 C0 12.06 0 6.12 0 0 Z " fill="#3789FD" transform="translate(576,377)"/>
<path d="M0 0 C1.32 0.33 2.64 0.66 4 1 C4 7.27 4 13.54 4 20 C2.68 20 1.36 20 0 20 C0 13.4 0 6.8 0 0 Z " fill="#609FF6" transform="translate(448,376)"/>
<path d="M0 0 C1.2375 0.1546875 1.2375 0.1546875 2.5 0.3125 C4.79013653 3.7477048 4.67842973 5.297831 4.5 9.3125 C1.53 9.3125 -1.44 9.3125 -4.5 9.3125 C-4.625 5.9375 -4.625 5.9375 -4.5 2.3125 C-2.5 0.3125 -2.5 0.3125 0 0 Z " fill="#3F8DFC" transform="translate(190.5,318.6875)"/>
<path d="M0 0 C1.4540625 0.0309375 1.4540625 0.0309375 2.9375 0.0625 C3.2675 1.0525 3.5975 2.0425 3.9375 3.0625 C2.2875 3.0625 0.6375 3.0625 -1.0625 3.0625 C-1.0625 3.7225 -1.0625 4.3825 -1.0625 5.0625 C0.5875 5.3925 2.2375 5.7225 3.9375 6.0625 C3.980221 7.72861905 3.97813832 9.39632885 3.9375 11.0625 C2.9375 12.0625 2.9375 12.0625 1.08984375 12.16015625 C-0.9609375 12.12760417 -3.01171875 12.09505208 -5.0625 12.0625 C-5.0625 11.4025 -5.0625 10.7425 -5.0625 10.0625 C-3.0825 10.0625 -1.1025 10.0625 0.9375 10.0625 C0.9375 9.4025 0.9375 8.7425 0.9375 8.0625 C-0.7125 7.7325 -2.3625 7.4025 -4.0625 7.0625 C-4.10504356 5.06295254 -4.10330783 3.06208364 -4.0625 1.0625 C-3.0625 0.0625 -3.0625 0.0625 0 0 Z " fill="#5599F8" transform="translate(679.0625,382.9375)"/>
<path d="M0 0 C0.99 0 1.98 0 3 0 C2.54177532 3.46941546 2.10868317 6.67395049 1 10 C0.34 10 -0.32 10 -1 10 C-1.66 12.31 -2.32 14.62 -3 17 C-6.93846154 13.67692308 -6.93846154 13.67692308 -7.25 10.25 C-7.1675 9.5075 -7.085 8.765 -7 8 C-6.34 8 -5.68 8 -5 8 C-5 8.66 -5 9.32 -5 10 C-4.34 10 -3.68 10 -3 10 C-2.87625 9.46375 -2.7525 8.9275 -2.625 8.375 C-1.87793984 5.5361714 -0.94696636 2.77776798 0 0 Z " fill="#3E8CFC" transform="translate(414,377)"/>
<path d="M0 0 C0.99 0 1.98 0 3 0 C3 1.65 3 3.3 3 5 C3.99 5.33 4.98 5.66 6 6 C5.34 6 4.68 6 4 6 C4 9.63 4 13.26 4 17 C2.68 17 1.36 17 0 17 C-0.19561869 14.9174133 -0.38119313 12.83388144 -0.5625 10.75 C-0.66691406 9.58984375 -0.77132813 8.4296875 -0.87890625 7.234375 C-0.98198087 4.48128523 -0.86213473 2.580018 0 0 Z " fill="#569AF8" transform="translate(506,379)"/>
<path d="M0 0 C1.134375 0.020625 2.26875 0.04125 3.4375 0.0625 C3.4375 0.7225 3.4375 1.3825 3.4375 2.0625 C1.7875 2.0625 0.1375 2.0625 -1.5625 2.0625 C-0.18558038 4.81633923 1.80470042 5.57733101 4.4375 7.0625 C3.5625 10.9375 3.5625 10.9375 2.4375 12.0625 C0.43791636 12.10330783 -1.56295254 12.10504356 -3.5625 12.0625 C-3.8925 11.0725 -4.2225 10.0825 -4.5625 9.0625 C-2.5825 9.0625 -0.6025 9.0625 1.4375 9.0625 C1.4375 8.4025 1.4375 7.7425 1.4375 7.0625 C-0.2125 6.7325 -1.8625 6.4025 -3.5625 6.0625 C-3.94468767 4.40635343 -4.27645102 2.73792976 -4.5625 1.0625 C-3.5625 0.0625 -3.5625 0.0625 0 0 Z " fill="#5096F9" transform="translate(607.5625,383.9375)"/>
<path d="M0 0 C1.32 0 2.64 0 4 0 C4 6.6 4 13.2 4 20 C0.37 20 -3.26 20 -7 20 C-7.33 19.34 -7.66 18.68 -8 18 C-4.37 18.33 -0.74 18.66 3 19 C3 13.06 3 7.12 3 1 C2.34 1 1.68 1 1 1 C1 3.64 1 6.28 1 9 C-1.97 9 -4.94 9 -8 9 C-7.67 8.34 -7.34 7.68 -7 7 C-5.02 7 -3.04 7 -1 7 C-1.020625 6.030625 -1.04125 5.06125 -1.0625 4.0625 C-1 1 -1 1 0 0 Z " fill="#89B7F0" transform="translate(668,376)"/>
<path d="M0 0 C2.64 0 5.28 0 8 0 C8 0.66 8 1.32 8 2 C7.01 2.33 6.02 2.66 5 3 C4.67 5.97 4.34 8.94 4 12 C2.68 12 1.36 12 0 12 C0 8.04 0 4.08 0 0 Z " fill="#5D9EF7" transform="translate(546,384)"/>
<path d="M0 0 C1.890625 0.26171875 1.890625 0.26171875 4 1 C5.046875 2.70703125 5.046875 2.70703125 5.75 4.8125 C5.99234375 5.49957031 6.2346875 6.18664062 6.484375 6.89453125 C7 9 7 9 7 13 C7.66 13 8.32 13 9 13 C8.67 14.65 8.34 16.3 8 18 C3.54680875 13.22872367 0 6.63054878 0 0 Z " fill="#4490FB" transform="translate(392,376)"/>
<path d="M0 0 C0 3.63 0 7.26 0 11 C-0.66 11 -1.32 11 -2 11 C-2.99 8.36 -3.98 5.72 -5 3 C-7.43717258 3.27034634 -7.43717258 3.27034634 -10 4 C-10.66 4.99 -11.32 5.98 -12 7 C-11.625 4.0625 -11.625 4.0625 -11 1 C-7.57067929 -0.71466036 -3.78283935 -0.05404056 0 0 Z " fill="#438FFB" transform="translate(372,384)"/>
<path d="M0 0 C0.99 0 1.98 0 3 0 C3 1.65 3 3.3 3 5 C3.99 5.33 4.98 5.66 6 6 C5.01 6 4.02 6 3 6 C3 9.3 3 12.6 3 16 C2.01 16 1.02 16 0 16 C-0.1958009 14.08416353 -0.38132214 12.16727461 -0.5625 10.25 C-0.66691406 9.18265625 -0.77132813 8.1153125 -0.87890625 7.015625 C-0.98560074 4.35858796 -0.81930395 2.50039428 0 0 Z " fill="#4490FB" transform="translate(376,379)"/>
<path d="M0 0 C0.3403125 0.928125 0.3403125 0.928125 0.6875 1.875 C2.37929835 4.61410209 3.99244161 5.05024472 7 6 C7 6.66 7 7.32 7 8 C5.02 8 3.04 8 1 8 C0.67 8.66 0.34 9.32 0 10 C-0.66 10 -1.32 10 -2 10 C-2 9.34 -2 8.68 -2 8 C-4.31 8 -6.62 8 -9 8 C-9 7.34 -9 6.68 -9 6 C-6.36 6 -3.72 6 -1 6 C-0.67 4.02 -0.34 2.04 0 0 Z " fill="#B6D0E8" transform="translate(602,385)"/>
<path d="M0 0 C3.125 0.25 3.125 0.25 5 1.4375 C6.47281139 3.81036279 6.34723194 5.50913944 6.125 8.25 C1.67 8.745 1.67 8.745 -2.875 9.25 C-2.875 8.59 -2.875 7.93 -2.875 7.25 C-0.235 7.25 2.405 7.25 5.125 7.25 C3.94075674 5.83422523 3.94075674 5.83422523 0.5625 6.1875 C-1.1390625 6.2184375 -1.1390625 6.2184375 -2.875 6.25 C-2.545 4.93 -2.215 3.61 -1.875 2.25 C-2.535 1.92 -3.195 1.59 -3.875 1.25 C-2.875 0.25 -2.875 0.25 0 0 Z " fill="#75ACF3" transform="translate(594.875,382.75)"/>
<path d="M0 0 C2.97 0.495 2.97 0.495 6 1 C5.01 1.33 4.02 1.66 3 2 C3 5.63 3 9.26 3 13 C3.99 13 4.98 13 6 13 C5.95875 11.88625 5.9175 10.7725 5.875 9.625 C6 6 6 6 8 4 C8.99 4.33 9.98 4.66 11 5 C10.01 5.66 9.02 6.32 8 7 C7.26393501 10.56769552 7.26393501 10.56769552 7 14 C5.35 14 3.7 14 2 14 C2 12.35 2 10.7 2 9 C1.34 9 0.68 9 0 9 C0 6.03 0 3.06 0 0 Z " fill="#A1C4EC" transform="translate(272,382)"/>
<path d="M0 0 C0.66 0 1.32 0 2 0 C2.18175781 0.62648438 2.36351562 1.25296875 2.55078125 1.8984375 C2.80214844 2.71570313 3.05351563 3.53296875 3.3125 4.375 C3.55613281 5.18710937 3.79976562 5.99921875 4.05078125 6.8359375 C4.91368185 9.33184629 4.91368185 9.33184629 8 11 C5.03 10.505 5.03 10.505 2 10 C2 12.31 2 14.62 2 17 C1.34 17 0.68 17 0 17 C0 11.39 0 5.78 0 0 Z " fill="#3B8BFD" transform="translate(615,384)"/>
<path d="M0 0 C0.33 0.99 0.66 1.98 1 3 C3.64 2.67 6.28 2.34 9 2 C9 2.66 9 3.32 9 4 C6.36 4 3.72 4 1 4 C1.33 4.66 1.66 5.32 2 6 C5.02934491 6.65772428 5.02934491 6.65772428 8 7 C8 7.99 8 8.98 8 10 C4.625 10.125 4.625 10.125 1 10 C-1 8 -1 8 -1.1875 4.4375 C-1 1 -1 1 0 0 Z " fill="#589BF8" transform="translate(291,386)"/>
<path d="M0 0 C3.96 0 7.92 0 12 0 C12 0.33 12 0.66 12 1 C10.35 1 8.7 1 7 1 C7 6.61 7 12.22 7 18 C6.34 18 5.68 18 5 18 C4.96132813 16.30230469 4.96132813 16.30230469 4.921875 14.5703125 C4.86560374 13.08850257 4.80825618 11.60673323 4.75 10.125 C4.73582031 9.37863281 4.72164063 8.63226563 4.70703125 7.86328125 C4.64013659 5.42861619 4.64013659 5.42861619 4 2 C2.68 1.34 1.36 0.68 0 0 Z " fill="#3688FE" transform="translate(309,377)"/>
<path d="M0 0 C2.31 0 4.62 0 7 0 C7 0.66 7 1.32 7 2 C6.01 2.33 5.02 2.66 4 3 C3.67 5.64 3.34 8.28 3 11 C2.01 11 1.02 11 0 11 C0 7.37 0 3.74 0 0 Z " fill="#4993FA" transform="translate(337,384)"/>
<path d="M0 0 C0.66 0 1.32 0 2 0 C2 5.94 2 11.88 2 18 C0.68 17.01 -0.64 16.02 -2 15 C-2 14.01 -2 13.02 -2 12 C-1.34 12 -0.68 12 0 12 C0 8.04 0 4.08 0 0 Z " fill="#3A8AFD" transform="translate(487,377)"/>
<path d="M0 0 C1.32 0.99 2.64 1.98 4 3 C4 3.99 4 4.98 4 6 C3.34 6 2.68 6 2 6 C2 9.96 2 13.92 2 18 C1.34 18 0.68 18 0 18 C0 12.06 0 6.12 0 0 Z " fill="#3C8BFC" transform="translate(475,377)"/>
<path d="M0 0 C1.67542976 0.28604898 3.34385343 0.61781233 5 1 C5.33 2.65 5.66 4.3 6 6 C4.0085944 6.38133299 2.00720923 6.71325582 0 7 C-1 6 -1 6 -1.125 3.5 C-1 1 -1 1 0 0 Z " fill="#B2CEE9" transform="translate(363,386)"/>
<path d="M0 0 C0.99 0 1.98 0 3 0 C3 1.65 3 3.3 3 5 C4.98 5 6.96 5 9 5 C9.28875 5.639375 9.5775 6.27875 9.875 6.9375 C10.82823451 9.15206079 10.82823451 9.15206079 13 10 C13 10.66 13 11.32 13 12 C12.01 11.67 11.02 11.34 10 11 C9.34 11.66 8.68 12.32 8 13 C7.67 11.35 7.34 9.7 7 8 C6.360625 7.855625 5.72125 7.71125 5.0625 7.5625 C3 7 3 7 2 6 C1.95936168 4.33382885 1.957279 2.66611905 2 1 C1.34 0.67 0.68 0.34 0 0 Z " fill="#6EA7F4" transform="translate(507,378)"/>
<path d="M0 0 C1.66611905 -0.042721 3.33382885 -0.04063832 5 0 C6 1 6 1 6.125 3.5 C6 6 6 6 5 7 C3.33382885 7.04063832 1.66611905 7.042721 0 7 C0 4.69 0 2.38 0 0 Z " fill="#B5CFE9" transform="translate(662,386)"/>
<path d="M0 0 C2 2 2 2 2.125 5.625 C2.08375 6.73875 2.0425 7.8525 2 9 C1.34 9 0.68 9 0 9 C-0.66 7.02 -1.32 5.04 -2 3 C-4.43717258 3.27034634 -4.43717258 3.27034634 -7 4 C-7.66 4.99 -8.32 5.98 -9 7 C-8.625 4.0625 -8.625 4.0625 -8 1 C-5.23749964 -0.38125018 -3.05268901 -0.19079306 0 0 Z " fill="#3F8DFC" transform="translate(443,384)"/>
<path d="M0 0 C3.71599191 -0.20086443 4.77208445 -0.1519437 8 2 C8.40373601 5.16259871 8.54458662 7.14012639 6.8125 9.875 C4.43963721 11.34781139 2.74086056 11.22223194 0 11 C0.66 10.608125 1.32 10.21625 2 9.8125 C4.22663597 8.1557738 4.22663597 8.1557738 4.5 5.5 C4.22663597 2.8442262 4.22663597 2.8442262 2 1.1875 C1.34 0.795625 0.68 0.40375 0 0 Z " fill="#4792FB" transform="translate(634,384)"/>
<path d="M0 0 C0.33 0.99 0.66 1.98 1 3 C1.66 2.67 2.32 2.34 3 2 C3 3.98 3 5.96 3 8 C4.98 7.67 6.96 7.34 9 7 C9.33 7.99 9.66 8.98 10 10 C3.77777778 10.35897436 3.77777778 10.35897436 0.5625 8.875 C-1 7 -1 7 -1.3125 3.875 C-1 1 -1 1 0 0 Z " fill="#5599F8" transform="translate(659,385)"/>
<path d="M0 0 C1.67542976 0.28604898 3.34385343 0.61781233 5 1 C5 2.65 5 4.3 5 6 C3.34385343 6.38218767 1.67542976 6.71395102 0 7 C-1 6 -1 6 -1.125 3.5 C-1 1 -1 1 0 0 Z " fill="#B5CFE9" transform="translate(634,386)"/>
<path d="M0 0 C1.67542976 0.28604898 3.34385343 0.61781233 5 1 C5 2.65 5 4.3 5 6 C3.34385343 6.38218767 1.67542976 6.71395102 0 7 C-1 6 -1 6 -1.125 3.5 C-1 1 -1 1 0 0 Z " fill="#B8D1E8" transform="translate(619,386)"/>
<path d="M0 0 C1.67542976 0.28604898 3.34385343 0.61781233 5 1 C5 2.65 5 4.3 5 6 C3.34385343 6.38218767 1.67542976 6.71395102 0 7 C-1 6 -1 6 -1.125 3.5 C-1 1 -1 1 0 0 Z " fill="#B4CFE9" transform="translate(536,386)"/>
<path d="M0 0 C1.67542976 0.28604898 3.34385343 0.61781233 5 1 C5 2.65 5 4.3 5 6 C3.34385343 6.38218767 1.67542976 6.71395102 0 7 C-1 6 -1 6 -1.125 3.5 C-1 1 -1 1 0 0 Z " fill="#B3CFE9" transform="translate(437,386)"/>
<path d="M0 0 C0.66 0 1.32 0 2 0 C2.73030908 6.21324498 3.23180249 11.84098757 2 18 C1.34 18 0.68 18 0 18 C0 12.06 0 6.12 0 0 Z " fill="#3C8BFC" transform="translate(323,377)"/>
<path d="M0 0 C0.33 0 0.66 0 1 0 C1 1.65 1 3.3 1 5 C2.65 5.33 4.3 5.66 6 6 C6 6.66 6 7.32 6 8 C4.02 8 2.04 8 0 8 C-0.33 8.66 -0.66 9.32 -1 10 C-2.23076923 4.58461538 -2.23076923 4.58461538 -1.0625 1.625 C-0.5365625 0.820625 -0.5365625 0.820625 0 0 Z " fill="#B2CEE9" transform="translate(674,385)"/>
<path d="M0 0 C0.99 0 1.98 0 3 0 C3 3.63 3 7.26 3 11 C2.01 11 1.02 11 0 11 C0 7.37 0 3.74 0 0 Z " fill="#4490FB" transform="translate(275,384)"/>
<path d="M0 0 C2.475 0.495 2.475 0.495 5 1 C5 2.65 5 4.3 5 6 C3.35 6.33 1.7 6.66 0 7 C0 4.69 0 2.38 0 0 Z " fill="#BDD4E7" transform="translate(579,379)"/>
<path d="M0 0 C0.99 0 1.98 0 3 0 C2.25 6.625 2.25 6.625 0 10 C-0.33 9.34 -0.66 8.68 -1 8 C-1.33 8.99 -1.66 9.98 -2 11 C-2.99 10.67 -3.98 10.34 -5 10 C-4.34 10 -3.68 10 -3 10 C-2.87625 9.46375 -2.7525 8.9275 -2.625 8.375 C-1.87793984 5.5361714 -0.94696636 2.77776798 0 0 Z " fill="#569AF8" transform="translate(414,377)"/>
<path d="M0 0 C0.33 0 0.66 0 1 0 C1 2.31 1 4.62 1 7 C-2.4019487 9.09350689 -5.05272412 9.17942163 -9 9 C-9.33 8.34 -9.66 7.68 -10 7 C-8 6.33333333 -6 5.66666667 -4 5 C-2.79117904 2.99983534 -2.79117904 2.99983534 -2 1 C-2 2.65 -2 4.3 -2 6 C-1.34 6 -0.68 6 0 6 C0 4.02 0 2.04 0 0 Z " fill="#75ABF3" transform="translate(544,387)"/>
<path d="M0 0 C0.99 0.33 1.98 0.66 3 1 C3 2.98 3 4.96 3 7 C2.01 7 1.02 7 0 7 C-0.33 7.99 -0.66 8.98 -1 10 C-2.54578627 6.90842747 -1.60277633 4.31526981 -1 1 C-0.67 0.67 -0.34 0.34 0 0 Z " fill="#4C94FA" transform="translate(404,377)"/>
<path d="M0 0 C0.598125 0.226875 1.19625 0.45375 1.8125 0.6875 C-0.1675 1.6775 -0.1675 1.6775 -2.1875 2.6875 C-2.52175735 5.06124861 -2.52175735 5.06124861 -2.1875 7.6875 C-0.2870533 9.53065671 -0.2870533 9.53065671 1.8125 10.6875 C-4.0625 9.8125 -4.0625 9.8125 -5.1875 8.6875 C-5.64727011 3.40014368 -5.64727011 3.40014368 -3.9375 0.75 C-2.1875 -0.3125 -2.1875 -0.3125 0 0 Z " fill="#398AFD" transform="translate(538.1875,384.3125)"/>
<path d="M0 0 C0.33 0.99 0.66 1.98 1 3 C3.31 3 5.62 3 8 3 C8 3.99 8 4.98 8 6 C5.69 6 3.38 6 1 6 C-0.0625 4.125 -0.0625 4.125 -1 2 C-0.67 1.34 -0.34 0.68 0 0 Z " fill="#569AF8" transform="translate(456,390)"/>
<path d="M0 0 C0.33 0 0.66 0 1 0 C1.125 2.375 1.125 2.375 1 5 C-1 7 -1 7 -4.625 7.125 C-5.73875 7.08375 -6.8525 7.0425 -8 7 C-8 6.01 -8 5.02 -8 4 C-5.36 4 -2.72 4 0 4 C0 2.68 0 1.36 0 0 Z " fill="#9DC2EC" transform="translate(503,386)"/>
<path d="M0 0 C0.99 0 1.98 0 3 0 C3 1.32 3 2.64 3 4 C2.34 4 1.68 4 1 4 C0.34 5.32 -0.32 6.64 -1 8 C-1.99 7.01 -2.98 6.02 -4 5 C-3.67 4.01 -3.34 3.02 -3 2 C-1.515 2.99 -1.515 2.99 0 4 C0 2.68 0 1.36 0 0 Z " fill="#408DFC" transform="translate(520,386)"/>
<path d="M0 0 C0.33 0 0.66 0 1 0 C1 6.27 1 12.54 1 19 C-2.16130459 14.78492722 -2.3367697 13.93928888 -2 9 C-1.67 9 -1.34 9 -1 9 C-0.67 6.03 -0.34 3.06 0 0 Z " fill="#A8C8EB" transform="translate(447,377)"/>
<path d="M0 0 C0.33 0 0.66 0 1 0 C1 5.61 1 11.22 1 17 C0.67 17 0.34 17 0 17 C-0.33 13.7 -0.66 10.4 -1 7 C-1.99 7.495 -1.99 7.495 -3 8 C-1.125 1.125 -1.125 1.125 0 0 Z " fill="#BAD2E8" transform="translate(418,378)"/>
<path d="M0 0 C0.66 0.33 1.32 0.66 2 1 C0.56877218 2.48523642 -0.87020889 3.96300462 -2.3125 5.4375 C-3.11300781 6.26121094 -3.91351563 7.08492188 -4.73828125 7.93359375 C-7 10 -7 10 -10 11 C-8.55218207 7.55571735 -6.72305391 5.63869038 -3.875 3.25 C-3.15054688 2.63640625 -2.42609375 2.0228125 -1.6796875 1.390625 C-0.84824219 0.70226562 -0.84824219 0.70226562 0 0 Z " fill="#5298F9" transform="translate(174,305)"/>
<path d="M0 0 C0.33 0 0.66 0 1 0 C1 1.65 1 3.3 1 5 C1.99 5 2.98 5 4 5 C3.67 7.31 3.34 9.62 3 12 C1 11 1 11 0 8 C-0.66 8.66 -1.32 9.32 -2 10 C-1.34 6.7 -0.68 3.4 0 0 Z " fill="#9BC1ED" transform="translate(587,380)"/>
<path d="M0 0 C1.98 0 3.96 0 6 0 C6.33 0.99 6.66 1.98 7 3 C6.01 3 5.02 3 4 3 C4 6.3 4 9.6 4 13 C2.68 12.67 1.36 12.34 0 12 C0.99 12 1.98 12 3 12 C3 8.37 3 4.74 3 1 C2.01 0.67 1.02 0.34 0 0 Z " fill="#9BC1ED" transform="translate(369,383)"/>
<path d="M0 0 C1.45792884 -0.05399736 2.91642712 -0.09279177 4.375 -0.125 C5.18710937 -0.14820313 5.99921875 -0.17140625 6.8359375 -0.1953125 C9 0 9 0 11 2 C10.34 4.31 9.68 6.62 9 9 C8.67 9 8.34 9 8 9 C8 7.35 8 5.7 8 4 C6.68 3.67 5.36 3.34 4 3 C4.99 3 5.98 3 7 3 C7 2.34 7 1.68 7 1 C4.69 1 2.38 1 0 1 C0 0.67 0 0.34 0 0 Z " fill="#97BEEE" transform="translate(337,383)"/>
<path d="M0 0 C0.99 0.33 1.98 0.66 3 1 C3.25 3.8125 3.25 3.8125 3 7 C1 8.875 1 8.875 -1 10 C-1.66 9.67 -2.32 9.34 -3 9 C-2.34 8.34 -1.68 7.68 -1 7 C-0.59952556 4.67724823 -0.2602896 2.34260643 0 0 Z " fill="#9AC0ED" transform="translate(627,386)"/>
<path d="M0 0 C4 6 4 6 4 9 C2.68 8.67 1.36 8.34 0 8 C-0.79953138 4.71303767 -1.09658936 3.28976808 0 0 Z " fill="#5A9CF7" transform="translate(584,387)"/>
<path d="M0 0 C0.3403125 0.928125 0.3403125 0.928125 0.6875 1.875 C2.39316009 4.6365449 3.96972909 5.01516195 7 6 C7.66 6.33 8.32 6.66 9 7 C8 8 8 8 4.5625 8.25 C3.386875 8.1675 2.21125 8.085 1 8 C-1 5 -1 5 -0.625 2.3125 C-0.41875 1.549375 -0.2125 0.78625 0 0 Z " fill="#6BA6F5" transform="translate(632,388)"/>
<path d="M0 0 C3 1 3 1 4 3 C4.99 2.01 5.98 1.02 7 0 C6.67 1.98 6.34 3.96 6 6 C4.68 6.33 3.36 6.66 2 7 C2 5.35 2 3.7 2 2 C1.34 2 0.68 2 0 2 C0 1.34 0 0.68 0 0 Z " fill="#69A5F5" transform="translate(521,384)"/>
<path d="M0 0 C0.66 0 1.32 0 2 0 C3.35015859 4.05047576 2.62084998 6.7920168 2 11 C1.34 11 0.68 11 0 11 C0 7.37 0 3.74 0 0 Z " fill="#3788FD" transform="translate(645,384)"/>
<path d="M0 0 C0.33 0 0.66 0 1 0 C1.625 2.875 1.625 2.875 2 6 C0 8 0 8 -3.125 8.125 C-4.548125 8.063125 -4.548125 8.063125 -6 8 C-6.33 7.34 -6.66 6.68 -7 6 C-5 5.33333333 -3 4.66666667 -1 4 C-0.26676204 1.98491642 -0.26676204 1.98491642 0 0 Z " fill="#68A4F5" transform="translate(442,388)"/>
<path d="M0 0 C1.65 0 3.3 0 5 0 C5.33 0.66 5.66 1.32 6 2 C5.67 2.99 5.34 3.98 5 5 C3.35 5 1.7 5 0 5 C0 3.33333333 0 1.66666667 0 0 Z " fill="#86B5F0" transform="translate(349,383)"/>
<path d="M0 0 C0.33 0 0.66 0 1 0 C1.625 3.375 1.625 3.375 2 7 C0 9 0 9 -2.625 9.125 C-3.40875 9.08375 -4.1925 9.0425 -5 9 C-4.67 8.01 -4.34 7.02 -4 6 C-3.01 5.67 -2.02 5.34 -1 5 C-0.67 3.35 -0.34 1.7 0 0 Z " fill="#65A2F6" transform="translate(624,387)"/>
<path d="M0 0 C0.33 0.99 0.66 1.98 1 3 C3.64 2.67 6.28 2.34 9 2 C9 2.66 9 3.32 9 4 C6.36 4 3.72 4 1 4 C1 4.66 1 5.32 1 6 C0.34 6 -0.32 6 -1 6 C-1.042721 4.33388095 -1.04063832 2.66617115 -1 1 C-0.67 0.67 -0.34 0.34 0 0 Z " fill="#3286FE" transform="translate(291,386)"/>
<path d="M0 0 C0 0.33 0 0.66 0 1 C-1.423125 1.12375 -1.423125 1.12375 -2.875 1.25 C-6.10461791 1.65074923 -6.10461791 1.65074923 -7.375 4.0625 C-7.58125 4.701875 -7.7875 5.34125 -8 6 C-8.99 5.34 -9.98 4.68 -11 4 C-7.65667474 -0.27945633 -5.29105716 -0.4070044 0 0 Z " fill="#65A2F6" transform="translate(266,376)"/>
<path d="M0 0 C1.32 0.33 2.64 0.66 4 1 C3.67 3.31 3.34 5.62 3 8 C1.0549 5.08235 0.54723683 3.37462715 0 0 Z " fill="#5F9FF7" transform="translate(392,376)"/>
<path d="M0 0 C-1.28519565 2.86697492 -2.57129254 4.97607712 -5 7 C-5.66 7 -6.32 7 -7 7 C-3.86206897 0 -3.86206897 0 0 0 Z " fill="#5398F9" transform="translate(339,319)"/>
<path d="M0 0 C0.33 0 0.66 0 1 0 C1 2.31 1 4.62 1 7 C-1.31 7.33 -3.62 7.66 -6 8 C-4.7934375 7.13375 -4.7934375 7.13375 -3.5625 6.25 C-1.02133261 4.01873107 -0.34879632 3.25543229 0 0 Z " fill="#3B8BFC" transform="translate(640,387)"/>
<path d="M0 0 C0.28875 0.598125 0.5775 1.19625 0.875 1.8125 C2.04742026 4.19327792 2.04742026 4.19327792 4 7 C3.34 7 2.68 7 2 7 C1.67 7.66 1.34 8.32 1 9 C-0.61949011 6.42786866 -1.04408751 5.32330841 -0.625 2.25 C-0.41875 1.5075 -0.2125 0.765 0 0 Z " fill="#B9D2E8" transform="translate(587,387)"/>
<path d="M0 0 C0.99 0 1.98 0 3 0 C3 0.99 3 1.98 3 3 C2.01 3.495 2.01 3.495 1 4 C0.34 4.99 -0.32 5.98 -1 7 C-1.625 4.625 -1.625 4.625 -2 2 C-1.34 1.34 -0.68 0.68 0 0 Z " fill="#5D9EF7" transform="translate(563,383)"/>
<path d="M0 0 C0.99 0.33 1.98 0.66 3 1 C3 1.99 3 2.98 3 4 C1.35 4.66 -0.3 5.32 -2 6 C-1.34 4.02 -0.68 2.04 0 0 Z " fill="#A1C4EC" transform="translate(240,330)"/>
<path d="M0 0 C1.65 0 3.3 0 5 0 C5.33 0.99 5.66 1.98 6 3 C4.02 3 2.04 3 0 3 C0 2.01 0 1.02 0 0 Z " fill="#8DB9EF" transform="translate(495,386)"/>
<path d="M0 0 C0.99 0.33 1.98 0.66 3 1 C3 3.31 3 5.62 3 8 C2.34 8 1.68 8 1 8 C0.67 5.36 0.34 2.72 0 0 Z " fill="#398AFD" transform="translate(624,385)"/>
<path d="M0 0 C0.66 0.33 1.32 0.66 2 1 C2 1.66 2 2.32 2 3 C1.34 3 0.68 3 0 3 C-0.33 3.99 -0.66 4.98 -1 6 C-1.99 6 -2.98 6 -4 6 C-3.67 4.68 -3.34 3.36 -3 2 C-2.01 2 -1.02 2 0 2 C0 1.34 0 0.68 0 0 Z " fill="#74AAF3" transform="translate(407,382)"/>
</svg>
